<?xml version="1.0" encoding="utf-8"?>
<!-- Generator: Adobe Illustrator 19.0.0, SVG Export Plug-In . SVG Version: 6.00 Build 0)  -->
<svg version="1.1" id="Layer_1" xmlns="http://www.w3.org/2000/svg" xmlns:xlink="http://www.w3.org/1999/xlink" x="0px" y="0px"
	 viewBox="0 0 500 500" style="enable-background:new 0 0 500 500;" xml:space="preserve">
<style type="text/css">
	.st0{fill:#D6FF00;}
	.st1{fill:#34E27A;}
	.st2{fill:#00B9F1;}
	.st3{fill:#FFFFFF;}
</style>
<g id="XMLID_1_">
	<rect id="XMLID_2_" x="67.5" y="67.5" width="365" height="365"/>
	<path id="XMLID_3_" class="st0" d="M250,102c-65.4,0-118.4,53-118.4,118.4h59.2c0-32.7,26.5-59.2,59.2-59.2V102z"/>
	<path id="XMLID_4_" class="st1" d="M368.4,220.4c0-65.4-53-118.4-118.4-118.4v59.2c32.7,0,59.2,26.5,59.2,59.2H368.4z"/>
	<path id="XMLID_5_" class="st2" d="M250,338.8c65.4,0,118.4-53,118.4-118.4h-59.2c0,32.7-26.5,59.2-59.2,59.2V338.8z"/>
	<polygon id="XMLID_6_" class="st3" points="190.8,338.8 190.8,220.4 131.6,220.4 131.6,398 250,398 250,338.8 	"/>
</g>
</svg>
